<svg xmlns="http://www.w3.org/2000/svg" xmlns:xlink="http://www.w3.org/1999/xlink" width="500" zoomAndPan="magnify" viewBox="0 0 375 374.999991" height="500" preserveAspectRatio="xMidYMid meet" version="1.0"><defs><clipPath id="b55e99829b"><path d="M 10.554688 27.703125 L 129.199219 27.703125 L 129.199219 130.445312 L 10.554688 130.445312 Z M 10.554688 27.703125 " clip-rule="nonzero"/></clipPath><clipPath id="d168c84e83"><path d="M 99.539062 27.703125 L 40.214844 27.703125 L 10.554688 79.074219 L 40.214844 130.445312 L 99.539062 130.445312 L 129.199219 79.074219 Z M 99.539062 27.703125 " clip-rule="nonzero"/></clipPath><clipPath id="37d2c203ef"><path d="M 114.859375 69.941406 L 255.664062 69.941406 L 255.664062 190.945312 L 114.859375 190.945312 Z M 114.859375 69.941406 " clip-rule="nonzero"/></clipPath><clipPath id="50c150d8ba"><path d="M 255.664062 130.445312 L 220.464844 190.945312 L 150.058594 190.945312 L 114.859375 130.445312 L 150.058594 69.941406 L 220.464844 69.941406 Z M 255.664062 130.445312 " clip-rule="nonzero"/></clipPath><clipPath id="2dba2cde2d"><path d="M 100.257812 208.328125 L 261.96875 208.328125 L 261.96875 347.296875 L 100.257812 347.296875 Z M 100.257812 208.328125 " clip-rule="nonzero"/></clipPath><clipPath id="e9a4b5b13c"><path d="M 261.96875 277.8125 L 221.539062 347.296875 L 140.683594 347.296875 L 100.257812 277.8125 L 140.683594 208.328125 L 221.539062 208.328125 Z M 261.96875 277.8125 " clip-rule="nonzero"/></clipPath><clipPath id="570282c750"><path d="M 230.847656 140.417969 L 364.445312 140.417969 L 364.445312 255.230469 L 230.847656 255.230469 Z M 230.847656 140.417969 " clip-rule="nonzero"/></clipPath><clipPath id="4dbf7fa65e"><path d="M 364.445312 197.824219 L 331.046875 255.230469 L 264.246094 255.230469 L 230.847656 197.824219 L 264.246094 140.417969 L 331.046875 140.417969 Z M 364.445312 197.824219 " clip-rule="nonzero"/></clipPath></defs><g clip-path="url(#b55e99829b)"><g clip-path="url(#d168c84e83)"><path fill="#38b6ff" d="M 10.554688 27.703125 L 129.199219 27.703125 L 129.199219 130.445312 L 10.554688 130.445312 Z M 10.554688 27.703125 " fill-opacity="1" fill-rule="nonzero"/></g></g><g clip-path="url(#37d2c203ef)"><g clip-path="url(#50c150d8ba)"><path fill="#ffde59" d="M 114.859375 69.941406 L 255.664062 69.941406 L 255.664062 190.945312 L 114.859375 190.945312 Z M 114.859375 69.941406 " fill-opacity="1" fill-rule="nonzero"/></g></g><g clip-path="url(#2dba2cde2d)"><g clip-path="url(#e9a4b5b13c)"><path fill="#c1ff72" d="M 100.257812 208.328125 L 261.96875 208.328125 L 261.96875 347.296875 L 100.257812 347.296875 Z M 100.257812 208.328125 " fill-opacity="1" fill-rule="nonzero"/></g></g><g clip-path="url(#570282c750)"><g clip-path="url(#4dbf7fa65e)"><path fill="#ff5757" d="M 230.847656 140.417969 L 364.445312 140.417969 L 364.445312 255.230469 L 230.847656 255.230469 Z M 230.847656 140.417969 " fill-opacity="1" fill-rule="nonzero"/></g></g></svg>