<svg xmlns="http://www.w3.org/2000/svg" xmlns:xlink="http://www.w3.org/1999/xlink" width="100" zoomAndPan="magnify" viewBox="0 0 75 30.000001" height="40" preserveAspectRatio="xMidYMid meet" version="1.0"><defs><g/><clipPath id="fb0389ae28"><path d="M 46.191406 2.640625 L 55.007812 2.640625 L 55.007812 10.277344 L 46.191406 10.277344 Z M 46.191406 2.640625 " clip-rule="nonzero"/></clipPath><clipPath id="990ca4a4ed"><path d="M 52.800781 2.640625 L 48.394531 2.640625 L 46.191406 6.460938 L 48.394531 10.277344 L 52.800781 10.277344 L 55.007812 6.460938 Z M 52.800781 2.640625 " clip-rule="nonzero"/></clipPath><clipPath id="4903154686"><path d="M 53.941406 5.78125 L 64.402344 5.78125 L 64.402344 14.773438 L 53.941406 14.773438 Z M 53.941406 5.78125 " clip-rule="nonzero"/></clipPath><clipPath id="b430712abd"><path d="M 64.402344 10.277344 L 61.789062 14.773438 L 56.558594 14.773438 L 53.941406 10.277344 L 56.558594 5.78125 L 61.789062 5.78125 Z M 64.402344 10.277344 " clip-rule="nonzero"/></clipPath><clipPath id="69fea71a9f"><path d="M 52.855469 16.0625 L 64.871094 16.0625 L 64.871094 26.390625 L 52.855469 26.390625 Z M 52.855469 16.0625 " clip-rule="nonzero"/></clipPath><clipPath id="d2ab141136"><path d="M 64.871094 21.226562 L 61.867188 26.390625 L 55.859375 26.390625 L 52.855469 21.226562 L 55.859375 16.0625 L 61.867188 16.0625 Z M 64.871094 21.226562 " clip-rule="nonzero"/></clipPath><clipPath id="a2550219b1"><path d="M 62.558594 11.019531 L 72.488281 11.019531 L 72.488281 19.550781 L 62.558594 19.550781 Z M 62.558594 11.019531 " clip-rule="nonzero"/></clipPath><clipPath id="37084d5952"><path d="M 72.488281 15.285156 L 70.003906 19.550781 L 65.042969 19.550781 L 62.558594 15.285156 L 65.042969 11.019531 L 70.003906 11.019531 Z M 72.488281 15.285156 " clip-rule="nonzero"/></clipPath></defs><g clip-path="url(#fb0389ae28)"><g clip-path="url(#990ca4a4ed)"><path fill="#38b6ff" d="M 46.191406 2.640625 L 55.007812 2.640625 L 55.007812 10.277344 L 46.191406 10.277344 Z M 46.191406 2.640625 " fill-opacity="1" fill-rule="nonzero"/></g></g><g clip-path="url(#4903154686)"><g clip-path="url(#b430712abd)"><path fill="#ffde59" d="M 53.941406 5.78125 L 64.402344 5.78125 L 64.402344 14.773438 L 53.941406 14.773438 Z M 53.941406 5.78125 " fill-opacity="1" fill-rule="nonzero"/></g></g><g clip-path="url(#69fea71a9f)"><g clip-path="url(#d2ab141136)"><path fill="#c1ff72" d="M 52.855469 16.0625 L 64.871094 16.0625 L 64.871094 26.390625 L 52.855469 26.390625 Z M 52.855469 16.0625 " fill-opacity="1" fill-rule="nonzero"/></g></g><g clip-path="url(#a2550219b1)"><g clip-path="url(#37084d5952)"><path fill="#ff5757" d="M 62.558594 11.019531 L 72.488281 11.019531 L 72.488281 19.550781 L 62.558594 19.550781 Z M 62.558594 11.019531 " fill-opacity="1" fill-rule="nonzero"/></g></g><g fill="#000000" fill-opacity="1"><g transform="translate(4.112902, 18.209103)"><g><path d="M 2.390625 0.078125 C 2.015625 0.078125 1.679688 0.015625 1.390625 -0.109375 C 1.097656 -0.234375 0.863281 -0.40625 0.6875 -0.625 C 0.519531 -0.851562 0.425781 -1.117188 0.40625 -1.421875 L 1.234375 -1.421875 C 1.265625 -1.179688 1.378906 -0.984375 1.578125 -0.828125 C 1.773438 -0.671875 2.039062 -0.59375 2.375 -0.59375 C 2.675781 -0.59375 2.914062 -0.660156 3.09375 -0.796875 C 3.269531 -0.929688 3.359375 -1.101562 3.359375 -1.3125 C 3.359375 -1.519531 3.265625 -1.675781 3.078125 -1.78125 C 2.890625 -1.882812 2.597656 -1.984375 2.203125 -2.078125 C 1.847656 -2.171875 1.554688 -2.265625 1.328125 -2.359375 C 1.109375 -2.460938 0.914062 -2.609375 0.75 -2.796875 C 0.59375 -2.992188 0.515625 -3.242188 0.515625 -3.546875 C 0.515625 -3.796875 0.585938 -4.023438 0.734375 -4.234375 C 0.878906 -4.441406 1.085938 -4.601562 1.359375 -4.71875 C 1.628906 -4.84375 1.9375 -4.90625 2.28125 -4.90625 C 2.8125 -4.90625 3.238281 -4.769531 3.5625 -4.5 C 3.894531 -4.226562 4.070312 -3.859375 4.09375 -3.390625 L 3.296875 -3.390625 C 3.273438 -3.640625 3.171875 -3.835938 2.984375 -3.984375 C 2.804688 -4.140625 2.5625 -4.21875 2.25 -4.21875 C 1.96875 -4.21875 1.738281 -4.15625 1.5625 -4.03125 C 1.394531 -3.914062 1.3125 -3.753906 1.3125 -3.546875 C 1.3125 -3.390625 1.363281 -3.257812 1.46875 -3.15625 C 1.570312 -3.0625 1.695312 -2.984375 1.84375 -2.921875 C 2 -2.859375 2.21875 -2.785156 2.5 -2.703125 C 2.84375 -2.609375 3.125 -2.515625 3.34375 -2.421875 C 3.5625 -2.335938 3.75 -2.203125 3.90625 -2.015625 C 4.0625 -1.835938 4.140625 -1.601562 4.140625 -1.3125 C 4.140625 -1.050781 4.066406 -0.8125 3.921875 -0.59375 C 3.773438 -0.382812 3.566406 -0.21875 3.296875 -0.09375 C 3.035156 0.0195312 2.734375 0.078125 2.390625 0.078125 Z M 2.390625 0.078125 "/></g></g></g><g fill="#000000" fill-opacity="1"><g transform="translate(8.530539, 18.209103)"><g><path d="M 1.09375 -5.609375 C 0.9375 -5.609375 0.804688 -5.660156 0.703125 -5.765625 C 0.597656 -5.867188 0.546875 -6 0.546875 -6.15625 C 0.546875 -6.300781 0.597656 -6.425781 0.703125 -6.53125 C 0.804688 -6.632812 0.9375 -6.6875 1.09375 -6.6875 C 1.238281 -6.6875 1.363281 -6.632812 1.46875 -6.53125 C 1.570312 -6.425781 1.625 -6.300781 1.625 -6.15625 C 1.625 -6 1.570312 -5.867188 1.46875 -5.765625 C 1.363281 -5.660156 1.238281 -5.609375 1.09375 -5.609375 Z M 1.484375 -4.828125 L 1.484375 0 L 0.671875 0 L 0.671875 -4.828125 Z M 1.484375 -4.828125 "/></g></g></g><g fill="#000000" fill-opacity="1"><g transform="translate(10.519267, 18.209103)"><g><path d="M 6.46875 -4.90625 C 6.84375 -4.90625 7.175781 -4.828125 7.46875 -4.671875 C 7.769531 -4.515625 8.003906 -4.28125 8.171875 -3.96875 C 8.335938 -3.664062 8.421875 -3.289062 8.421875 -2.84375 L 8.421875 0 L 7.640625 0 L 7.640625 -2.734375 C 7.640625 -3.210938 7.519531 -3.578125 7.28125 -3.828125 C 7.039062 -4.085938 6.71875 -4.21875 6.3125 -4.21875 C 5.894531 -4.21875 5.5625 -4.082031 5.3125 -3.8125 C 5.070312 -3.539062 4.953125 -3.15625 4.953125 -2.65625 L 4.953125 0 L 4.15625 0 L 4.15625 -2.734375 C 4.15625 -3.210938 4.035156 -3.578125 3.796875 -3.828125 C 3.566406 -4.085938 3.25 -4.21875 2.84375 -4.21875 C 2.425781 -4.21875 2.09375 -4.082031 1.84375 -3.8125 C 1.601562 -3.539062 1.484375 -3.15625 1.484375 -2.65625 L 1.484375 0 L 0.671875 0 L 0.671875 -4.828125 L 1.484375 -4.828125 L 1.484375 -4.125 C 1.640625 -4.375 1.847656 -4.566406 2.109375 -4.703125 C 2.378906 -4.835938 2.675781 -4.90625 3 -4.90625 C 3.40625 -4.90625 3.765625 -4.8125 4.078125 -4.625 C 4.390625 -4.445312 4.617188 -4.179688 4.765625 -3.828125 C 4.898438 -4.171875 5.125 -4.4375 5.4375 -4.625 C 5.75 -4.8125 6.09375 -4.90625 6.46875 -4.90625 Z M 6.46875 -4.90625 "/></g></g></g><g fill="#000000" fill-opacity="1"><g transform="translate(19.407521, 18.209103)"><g><path d="M 1.484375 -3.9375 C 1.640625 -4.207031 1.875 -4.4375 2.1875 -4.625 C 2.5 -4.8125 2.863281 -4.90625 3.28125 -4.90625 C 3.707031 -4.90625 4.09375 -4.800781 4.4375 -4.59375 C 4.789062 -4.382812 5.066406 -4.09375 5.265625 -3.71875 C 5.460938 -3.351562 5.5625 -2.921875 5.5625 -2.421875 C 5.5625 -1.941406 5.460938 -1.507812 5.265625 -1.125 C 5.066406 -0.738281 4.789062 -0.441406 4.4375 -0.234375 C 4.09375 -0.0234375 3.707031 0.078125 3.28125 0.078125 C 2.875 0.078125 2.507812 -0.0078125 2.1875 -0.1875 C 1.875 -0.375 1.640625 -0.609375 1.484375 -0.890625 L 1.484375 2.28125 L 0.671875 2.28125 L 0.671875 -4.828125 L 1.484375 -4.828125 Z M 4.75 -2.421875 C 4.75 -2.785156 4.675781 -3.101562 4.53125 -3.375 C 4.382812 -3.644531 4.1875 -3.847656 3.9375 -3.984375 C 3.6875 -4.128906 3.410156 -4.203125 3.109375 -4.203125 C 2.816406 -4.203125 2.546875 -4.128906 2.296875 -3.984375 C 2.046875 -3.847656 1.847656 -3.640625 1.703125 -3.359375 C 1.554688 -3.085938 1.484375 -2.773438 1.484375 -2.421875 C 1.484375 -2.054688 1.554688 -1.738281 1.703125 -1.46875 C 1.847656 -1.195312 2.046875 -0.988281 2.296875 -0.84375 C 2.546875 -0.695312 2.816406 -0.625 3.109375 -0.625 C 3.410156 -0.625 3.6875 -0.695312 3.9375 -0.84375 C 4.1875 -0.988281 4.382812 -1.195312 4.53125 -1.46875 C 4.675781 -1.738281 4.75 -2.054688 4.75 -2.421875 Z M 4.75 -2.421875 "/></g></g></g><g fill="#000000" fill-opacity="1"><g transform="translate(25.180429, 18.209103)"><g><path d="M 1.484375 -6.515625 L 1.484375 0 L 0.671875 0 L 0.671875 -6.515625 Z M 1.484375 -6.515625 "/></g></g></g><g fill="#000000" fill-opacity="1"><g transform="translate(27.169157, 18.209103)"><g><path d="M 5.078125 -2.59375 C 5.078125 -2.4375 5.066406 -2.273438 5.046875 -2.109375 L 1.203125 -2.109375 C 1.222656 -1.640625 1.378906 -1.269531 1.671875 -1 C 1.972656 -0.726562 2.335938 -0.59375 2.765625 -0.59375 C 3.109375 -0.59375 3.394531 -0.671875 3.625 -0.828125 C 3.851562 -0.992188 4.015625 -1.210938 4.109375 -1.484375 L 4.984375 -1.484375 C 4.847656 -1.023438 4.585938 -0.648438 4.203125 -0.359375 C 3.816406 -0.0664062 3.335938 0.078125 2.765625 0.078125 C 2.304688 0.078125 1.894531 -0.0195312 1.53125 -0.21875 C 1.175781 -0.425781 0.894531 -0.71875 0.6875 -1.09375 C 0.476562 -1.476562 0.375 -1.921875 0.375 -2.421875 C 0.375 -2.921875 0.472656 -3.359375 0.671875 -3.734375 C 0.867188 -4.109375 1.148438 -4.394531 1.515625 -4.59375 C 1.878906 -4.800781 2.296875 -4.90625 2.765625 -4.90625 C 3.222656 -4.90625 3.625 -4.800781 3.96875 -4.59375 C 4.320312 -4.394531 4.59375 -4.117188 4.78125 -3.765625 C 4.976562 -3.421875 5.078125 -3.03125 5.078125 -2.59375 Z M 4.25 -2.765625 C 4.25 -3.066406 4.179688 -3.328125 4.046875 -3.546875 C 3.910156 -3.765625 3.726562 -3.929688 3.5 -4.046875 C 3.269531 -4.160156 3.015625 -4.21875 2.734375 -4.21875 C 2.328125 -4.21875 1.976562 -4.085938 1.6875 -3.828125 C 1.40625 -3.578125 1.242188 -3.222656 1.203125 -2.765625 Z M 4.25 -2.765625 "/></g></g></g><g fill="#000000" fill-opacity="1"><g transform="translate(32.449242, 18.209103)"><g><path d="M 0.375 -3.0625 C 0.375 -3.664062 0.507812 -4.207031 0.78125 -4.6875 C 1.050781 -5.164062 1.421875 -5.535156 1.890625 -5.796875 C 2.359375 -6.066406 2.875 -6.203125 3.4375 -6.203125 C 4.101562 -6.203125 4.6875 -6.039062 5.1875 -5.71875 C 5.6875 -5.40625 6.050781 -4.953125 6.28125 -4.359375 L 5.328125 -4.359375 C 5.148438 -4.722656 4.898438 -5.003906 4.578125 -5.203125 C 4.265625 -5.398438 3.882812 -5.5 3.4375 -5.5 C 3.007812 -5.5 2.625 -5.398438 2.28125 -5.203125 C 1.945312 -5.003906 1.679688 -4.722656 1.484375 -4.359375 C 1.296875 -3.992188 1.203125 -3.5625 1.203125 -3.0625 C 1.203125 -2.582031 1.296875 -2.15625 1.484375 -1.78125 C 1.679688 -1.414062 1.945312 -1.132812 2.28125 -0.9375 C 2.625 -0.738281 3.007812 -0.640625 3.4375 -0.640625 C 3.882812 -0.640625 4.265625 -0.738281 4.578125 -0.9375 C 4.898438 -1.132812 5.148438 -1.414062 5.328125 -1.78125 L 6.28125 -1.78125 C 6.050781 -1.195312 5.6875 -0.742188 5.1875 -0.421875 C 4.6875 -0.109375 4.101562 0.046875 3.4375 0.046875 C 2.875 0.046875 2.359375 -0.0820312 1.890625 -0.34375 C 1.421875 -0.613281 1.050781 -0.984375 0.78125 -1.453125 C 0.507812 -1.929688 0.375 -2.46875 0.375 -3.0625 Z M 0.375 -3.0625 "/></g></g></g><g fill="#000000" fill-opacity="1"><g transform="translate(39.06699, 18.209103)"><g><path d="M 3.90625 0 L 2.453125 -2.5 L 1.484375 -2.5 L 1.484375 0 L 0.671875 0 L 0.671875 -6.125 L 2.65625 -6.125 C 3.125 -6.125 3.515625 -6.046875 3.828125 -5.890625 C 4.148438 -5.734375 4.390625 -5.519531 4.546875 -5.25 C 4.703125 -4.976562 4.78125 -4.671875 4.78125 -4.328125 C 4.78125 -3.898438 4.660156 -3.523438 4.421875 -3.203125 C 4.179688 -2.890625 3.816406 -2.675781 3.328125 -2.5625 L 4.859375 0 Z M 1.484375 -3.15625 L 2.65625 -3.15625 C 3.09375 -3.15625 3.414062 -3.257812 3.625 -3.46875 C 3.84375 -3.6875 3.953125 -3.972656 3.953125 -4.328125 C 3.953125 -4.691406 3.84375 -4.972656 3.625 -5.171875 C 3.414062 -5.367188 3.09375 -5.46875 2.65625 -5.46875 L 1.484375 -5.46875 Z M 1.484375 -3.15625 "/></g></g></g><g fill="#000000" fill-opacity="1"><g transform="translate(44.241465, 18.209103)"><g><path d="M 6.890625 -6.09375 L 6.890625 0 L 6.09375 0 L 6.09375 -4.546875 L 4.078125 0 L 3.515625 0 L 1.484375 -4.546875 L 1.484375 0 L 0.671875 0 L 0.671875 -6.09375 L 1.546875 -6.09375 L 3.796875 -1.0625 L 6.046875 -6.09375 Z M 6.890625 -6.09375 "/></g></g></g></svg>